<?xml version="1.0" encoding="UTF-8"?>
<svg xmlns="http://www.w3.org/2000/svg" xmlns:xlink="http://www.w3.org/1999/xlink" width="48px" height="48px" viewBox="0 0 48 48" version="1.1">
<g id="surface1">
<path style="fill:none;stroke-width:2;stroke-linecap:round;stroke-linejoin:round;stroke:rgb(0%,0%,0%);stroke-opacity:1;stroke-miterlimit:4;" d="M 4 7 L 10.199219 11.650391 C 11.267578 12.449219 12.732422 12.449219 13.800781 11.650391 L 20 7 " transform="matrix(2,0,0,2,0,0)"/>
<path style="fill:none;stroke-width:2;stroke-linecap:round;stroke-linejoin:miter;stroke:rgb(0%,0%,0%);stroke-opacity:1;stroke-miterlimit:4;" d="M 5 5 L 19 5 C 20.105469 5 21 5.894531 21 7 L 21 17 C 21 18.105469 20.105469 19 19 19 L 5 19 C 3.894531 19 3 18.105469 3 17 L 3 7 C 3 5.894531 3.894531 5 5 5 Z M 5 5 " transform="matrix(2,0,0,2,0,0)"/>
</g>
</svg>
