<?xml version="1.0" encoding="utf-8"?>
<!-- Generator: Adobe Illustrator 16.0.0, SVG Export Plug-In . SVG Version: 6.00 Build 0)  -->
<!DOCTYPE svg PUBLIC "-//W3C//DTD SVG 1.1//EN" "http://www.w3.org/Graphics/SVG/1.1/DTD/svg11.dtd">
<svg version="1.1" id="Layer_1" xmlns="http://www.w3.org/2000/svg" xmlns:xlink="http://www.w3.org/1999/xlink" x="0px" y="0px"
	 width="512px" height="512px" viewBox="0 0 512 512" enable-background="new 0 0 512 512" xml:space="preserve">
<path d="M194.53,28.14c25.801-2.089,51.688,6.089,73.24,20.012c22.706,13.12,53.039,16.663,75.675,1.484
	c13.098-9.624,27.757-17.874,44.013-20.482c22.871-4.179,47.525,3.583,63.977,19.973c7.125,7.062,5.625,20.151-2.844,25.494
	c-6.237,4.202-15.392,3.472-20.766-1.838c-8.422-7.849-20.19-12.296-31.726-10.968c-10.873,0.942-20.686,6.387-29.422,12.602
	c-11.219,7.959-23.916,14.072-37.469,16.734c-23.845,5.1-48.994,0.425-70.772-10.056c-8.344-3.717-15.524-9.649-24.127-12.854
	c-17.34-7.51-37.972-9.883-55.555-1.83c-7.801,3.205-13.96,9.097-21.072,13.45c-11.25,6.962-23.876,12.06-37.138,13.231
	c-21.386,2.208-43.321-5.648-59.121-20.058c-6.891-6.018-7.292-17.71-0.667-24.074c5.75-6.277,16.302-6.646,22.681-1.138
	c9.051,8.201,21.457,13.182,33.761,11.863c11.141-0.809,21.055-6.686,29.785-13.263C160.785,36.13,177.355,29.618,194.53,28.14z"/>
<path d="M192.055,95.456c26.525-2.914,53.378,5.343,75.581,19.658c17.583,9.899,38.978,14.778,58.767,9.278
	c7.968-2.137,15.203-6.285,21.898-11.015c12.286-8.783,26.366-15.524,41.46-17.543c22.005-3.324,45.215,4.399,61.203,19.798
	c5.899,5.603,6.779,15.556,1.774,22.015c-5.83,8.43-19.171,8.877-25.919,1.32c-8.288-7.393-19.714-11.353-30.806-10.12
	c-10.536,1.085-20.239,6.019-28.717,12.156c-11.038,8.154-23.774,14.078-37.192,17.024c-29.353,6.412-60.488-1.555-85.426-17.629
	c-19.39-11.102-44.005-16.491-65.186-7.267c-6.576,2.671-12.194,7.046-17.905,11.141c-11.966,8.405-25.912,14.314-40.518,15.815
	c-21.598,2.38-43.855-5.508-59.773-20.137c-6.387-5.711-7.11-16.356-1.556-22.871c5.571-7.244,17.339-8.162,24.01-1.917
	c9.954,8.894,23.899,13.711,37.185,11.104c10.921-1.958,20.286-8.329,28.983-14.858C162.365,102.693,176.971,97.176,192.055,95.456z
	"/>
<g>
	<circle cx="256.25" cy="360.217" r="62.292"/>
	<path d="M439.429,237.394H336.504l-3.079-24.017c0-13.72-11.124-24.845-24.845-24.845H202.576
		c-13.721,0-24.845,11.125-24.845,24.845l-3.079,24.017H72.555c-9.147,0-16.563,7.001-16.563,16.149v213.664
		c0,9.148,7.416,16.978,16.563,16.978h366.874c9.147,0,16.563-7.829,16.563-16.978V253.543
		C455.992,244.395,448.576,237.394,439.429,237.394z M256.071,462.29c-56.255,0-101.858-45.604-101.858-101.857
		c0-56.255,45.604-101.859,101.858-101.859c56.254,0,101.858,45.604,101.858,101.859C357.929,416.686,312.325,462.29,256.071,462.29
		z M436.944,281.286h-86.956v-25.673h86.956V281.286z"/>
</g>
</svg>
