<?xml version="1.0" encoding="UTF-8"?>
<svg xmlns="http://www.w3.org/2000/svg" xmlns:xlink="http://www.w3.org/1999/xlink" width="48px" height="48px" viewBox="0 0 48 48" version="1.1">
<g id="surface1">
<path style=" stroke:none;fill-rule:nonzero;fill:rgb(0%,0%,0%);fill-opacity:1;" d="M 18.238281 2.636719 C 20.65625 2.441406 23.082031 3.207031 25.101562 4.515625 C 27.230469 5.746094 30.074219 6.078125 32.199219 4.652344 C 33.425781 3.75 34.800781 2.976562 36.324219 2.734375 C 38.46875 2.339844 40.78125 3.070312 42.320312 4.605469 C 42.988281 5.269531 42.847656 6.496094 42.054688 6.996094 C 41.46875 7.390625 40.613281 7.320312 40.109375 6.824219 C 39.320312 6.085938 38.214844 5.671875 37.132812 5.796875 C 36.113281 5.882812 35.195312 6.394531 34.375 6.976562 C 33.324219 7.722656 32.132812 8.296875 30.863281 8.546875 C 28.628906 9.023438 26.269531 8.585938 24.226562 7.601562 C 23.445312 7.253906 22.773438 6.699219 21.964844 6.398438 C 20.339844 5.695312 18.40625 5.472656 16.757812 6.226562 C 16.027344 6.527344 15.449219 7.078125 14.78125 7.488281 C 13.726562 8.140625 12.542969 8.617188 11.300781 8.726562 C 9.296875 8.933594 7.238281 8.199219 5.757812 6.847656 C 5.113281 6.28125 5.074219 5.1875 5.695312 4.589844 C 6.234375 4 7.222656 3.96875 7.820312 4.484375 C 8.671875 5.253906 9.832031 5.71875 10.988281 5.59375 C 12.03125 5.519531 12.960938 4.96875 13.78125 4.351562 C 15.074219 3.386719 16.628906 2.777344 18.238281 2.636719 Z M 18.238281 2.636719 "/>
<path style=" stroke:none;fill-rule:nonzero;fill:rgb(0%,0%,0%);fill-opacity:1;" d="M 18.003906 8.949219 C 20.492188 8.675781 23.007812 9.449219 25.089844 10.792969 C 26.738281 11.71875 28.746094 12.175781 30.601562 11.660156 C 31.347656 11.460938 32.027344 11.074219 32.652344 10.628906 C 33.804688 9.804688 35.125 9.171875 36.539062 8.984375 C 38.601562 8.671875 40.777344 9.398438 42.277344 10.839844 C 42.832031 11.367188 42.914062 12.300781 42.445312 12.90625 C 41.898438 13.695312 40.648438 13.738281 40.015625 13.027344 C 39.238281 12.335938 38.167969 11.964844 37.125 12.078125 C 36.136719 12.179688 35.230469 12.644531 34.433594 13.21875 C 33.398438 13.984375 32.207031 14.539062 30.945312 14.816406 C 28.195312 15.417969 25.277344 14.667969 22.9375 13.164062 C 21.121094 12.121094 18.8125 11.617188 16.828125 12.480469 C 16.210938 12.730469 15.683594 13.140625 15.148438 13.527344 C 14.027344 14.3125 12.71875 14.867188 11.351562 15.007812 C 9.324219 15.230469 7.238281 14.492188 5.746094 13.121094 C 5.148438 12.585938 5.078125 11.585938 5.601562 10.976562 C 6.121094 10.296875 7.226562 10.210938 7.851562 10.796875 C 8.785156 11.628906 10.09375 12.082031 11.335938 11.835938 C 12.363281 11.652344 13.238281 11.054688 14.054688 10.445312 C 15.222656 9.628906 16.589844 9.109375 18.003906 8.949219 Z M 18.003906 8.949219 "/>
<path style=" stroke:none;fill-rule:nonzero;fill:rgb(0%,0%,0%);fill-opacity:1;" d="M 29.863281 33.769531 C 29.863281 30.546875 27.25 27.929688 24.023438 27.929688 C 20.796875 27.929688 18.183594 30.546875 18.183594 33.769531 C 18.183594 36.996094 20.796875 39.609375 24.023438 39.609375 C 27.25 39.609375 29.863281 36.996094 29.863281 33.769531 Z M 29.863281 33.769531 "/>
<path style=" stroke:none;fill-rule:nonzero;fill:rgb(0%,0%,0%);fill-opacity:1;" d="M 41.195312 22.253906 L 31.546875 22.253906 L 31.257812 20.003906 C 31.257812 18.71875 30.214844 17.675781 28.929688 17.675781 L 18.992188 17.675781 C 17.707031 17.675781 16.664062 18.71875 16.664062 20.003906 L 16.375 22.253906 L 6.800781 22.253906 C 5.945312 22.253906 5.25 22.910156 5.25 23.769531 L 5.25 43.800781 C 5.25 44.660156 5.945312 45.390625 6.800781 45.390625 L 41.195312 45.390625 C 42.054688 45.390625 42.75 44.660156 42.75 43.800781 L 42.75 23.769531 C 42.75 22.910156 42.054688 22.253906 41.195312 22.253906 Z M 24.007812 43.339844 C 18.734375 43.339844 14.457031 39.0625 14.457031 33.789062 C 14.457031 28.515625 18.734375 24.242188 24.007812 24.242188 C 29.28125 24.242188 33.554688 28.515625 33.554688 33.789062 C 33.554688 39.0625 29.28125 43.339844 24.007812 43.339844 Z M 40.964844 26.371094 L 32.8125 26.371094 L 32.8125 23.964844 L 40.964844 23.964844 Z M 40.964844 26.371094 "/>
</g>
</svg>
