<?xml version="1.0" encoding="UTF-8"?>
<svg xmlns="http://www.w3.org/2000/svg" xmlns:xlink="http://www.w3.org/1999/xlink" width="48px" height="48px" viewBox="0 0 48 48" version="1.1">
<g id="surface1">
<path style=" stroke:none;fill-rule:nonzero;fill:rgb(19.607843%,27.843137%,40.784314%);fill-opacity:1;" d="M 33.132812 24.136719 L 39.425781 24.136719 C 39.917969 24.136719 40.316406 24.570312 40.316406 25.113281 L 40.316406 30.140625 C 40.316406 30.332031 40.3125 30.25 40.308594 30.5 C 40.304688 30.699219 40.304688 30.8125 40.308594 30.828125 C 40.316406 30.851562 40.386719 30.976562 40.546875 31.242188 L 47.132812 42.367188 L 47.171875 42.425781 C 47.660156 43.289062 47.890625 44.160156 47.871094 44.9375 C 47.859375 45.425781 47.757812 45.882812 47.558594 46.28125 C 47.359375 46.695312 47.0625 47.042969 46.675781 47.304688 C 46.203125 47.628906 45.59375 47.8125 44.867188 47.808594 L 44.800781 47.8125 L 29.21875 47.8125 C 28.894531 47.8125 28.839844 47.8125 28.796875 47.8125 C 27.703125 47.832031 26.65625 47.855469 25.648438 46.882812 C 25.078125 46.332031 24.746094 45.59375 24.753906 44.714844 C 24.757812 43.992188 24.996094 43.203125 25.53125 42.375 C 27.691406 38.664062 30.058594 34.84375 32.101562 31.078125 C 32.207031 30.902344 32.242188 30.863281 32.25 30.839844 C 32.253906 30.820312 32.242188 30.792969 32.242188 30.664062 L 32.242188 30.40625 L 32.246094 25.191406 C 32.242188 25.160156 32.242188 25.136719 32.242188 25.105469 C 32.242188 24.570312 32.640625 24.136719 33.132812 24.136719 Z M 33.132812 24.136719 "/>
<path style=" stroke:none;fill-rule:evenodd;fill:rgb(100%,100%,100%);fill-opacity:1;" d="M 39.425781 25.113281 L 33.132812 25.113281 L 33.128906 30.414062 C 33.128906 31.167969 33.183594 31.046875 32.8125 31.679688 L 26.257812 42.949219 C 25.371094 44.3125 25.515625 45.453125 26.242188 46.152344 C 27.113281 46.996094 28.152344 46.839844 29.226562 46.839844 L 44.808594 46.839844 C 46.945312 46.890625 47.574219 44.984375 46.421875 42.941406 L 39.867188 31.878906 C 39.351562 31.011719 39.425781 31.183594 39.425781 30.144531 Z M 39.425781 25.113281 "/>
<path style=" stroke:none;fill-rule:evenodd;fill:rgb(54.509804%,73.72549%,85.882353%);fill-opacity:1;" d="M 28.371094 39.292969 L 26.246094 42.949219 C 25.359375 44.3125 25.503906 45.453125 26.230469 46.152344 C 27.101562 46.996094 28.140625 46.839844 29.214844 46.839844 L 44.796875 46.839844 C 46.933594 46.890625 47.5625 44.984375 46.410156 42.941406 L 44.25 39.292969 Z M 28.371094 39.292969 "/>
<path style=" stroke:none;fill-rule:nonzero;fill:rgb(14.901961%,14.901961%,14.901961%);fill-opacity:1;" d="M 31.273438 34.417969 C 31.039062 34.417969 30.847656 34.207031 30.847656 33.949219 C 30.847656 33.6875 31.039062 33.476562 31.273438 33.476562 L 32.957031 33.476562 C 33.195312 33.476562 33.382812 33.6875 33.382812 33.949219 C 33.382812 34.207031 33.195312 34.417969 32.957031 34.417969 Z M 31.273438 34.417969 "/>
<path style=" stroke:none;fill-rule:nonzero;fill:rgb(14.901961%,14.901961%,14.901961%);fill-opacity:1;" d="M 30.113281 36.460938 C 29.875 36.460938 29.683594 36.25 29.683594 35.992188 C 29.683594 35.730469 29.875 35.523438 30.113281 35.523438 L 32.265625 35.523438 C 32.503906 35.523438 32.691406 35.730469 32.691406 35.992188 C 32.691406 36.25 32.503906 36.460938 32.265625 36.460938 Z M 30.113281 36.460938 "/>
<path style=" stroke:none;fill-rule:nonzero;fill:rgb(19.607843%,27.843137%,40.784314%);fill-opacity:1;" d="M 39.144531 42.0625 C 39.667969 42.0625 40.140625 42.296875 40.488281 42.675781 C 40.828125 43.054688 41.042969 43.574219 41.042969 44.152344 C 41.042969 44.726562 40.828125 45.246094 40.488281 45.628906 C 40.144531 46.007812 39.667969 46.238281 39.144531 46.238281 C 38.621094 46.238281 38.144531 46.003906 37.800781 45.621094 C 37.460938 45.246094 37.246094 44.722656 37.246094 44.148438 C 37.246094 43.570312 37.460938 43.050781 37.800781 42.671875 C 38.144531 42.296875 38.617188 42.0625 39.144531 42.0625 Z M 39.144531 42.0625 "/>
<path style=" stroke:none;fill-rule:evenodd;fill:rgb(54.509804%,73.72549%,85.882353%);fill-opacity:1;" d="M 39.144531 42.6875 C 39.878906 42.6875 40.472656 43.339844 40.472656 44.148438 C 40.472656 44.953125 39.878906 45.605469 39.144531 45.605469 C 38.410156 45.605469 37.8125 44.953125 37.8125 44.148438 C 37.8125 43.339844 38.410156 42.6875 39.144531 42.6875 Z M 39.144531 42.6875 "/>
<path style=" stroke:none;fill-rule:nonzero;fill:rgb(19.607843%,27.843137%,40.784314%);fill-opacity:1;" d="M 43.660156 42.042969 C 43.960938 42.042969 44.230469 42.175781 44.421875 42.386719 C 44.617188 42.601562 44.738281 42.902344 44.738281 43.226562 C 44.738281 43.550781 44.617188 43.847656 44.421875 44.0625 C 44.230469 44.273438 43.957031 44.40625 43.660156 44.40625 C 43.367188 44.40625 43.09375 44.273438 42.902344 44.0625 C 42.707031 43.847656 42.585938 43.550781 42.585938 43.226562 C 42.585938 42.902344 42.707031 42.601562 42.902344 42.386719 C 43.09375 42.175781 43.363281 42.042969 43.660156 42.042969 Z M 43.660156 42.042969 "/>
<path style=" stroke:none;fill-rule:evenodd;fill:rgb(54.509804%,73.72549%,85.882353%);fill-opacity:1;" d="M 43.660156 42.664062 C 43.941406 42.664062 44.171875 42.917969 44.171875 43.226562 C 44.171875 43.53125 43.941406 43.785156 43.660156 43.785156 C 43.382812 43.785156 43.152344 43.53125 43.152344 43.226562 C 43.152344 42.917969 43.382812 42.664062 43.660156 42.664062 Z M 43.660156 42.664062 "/>
<path style=" stroke:none;fill-rule:nonzero;fill:rgb(19.607843%,27.843137%,40.784314%);fill-opacity:1;" d="M 39.660156 36.769531 C 40.070312 36.769531 40.445312 36.953125 40.714844 37.25 L 40.75 37.292969 C 41 37.585938 41.15625 37.980469 41.15625 38.410156 C 41.15625 38.863281 40.988281 39.273438 40.714844 39.566406 C 40.445312 39.867188 40.070312 40.050781 39.660156 40.050781 C 39.246094 40.050781 38.875 39.867188 38.601562 39.566406 C 38.332031 39.273438 38.164062 38.859375 38.164062 38.40625 C 38.164062 37.953125 38.332031 37.542969 38.601562 37.246094 C 38.875 36.949219 39.246094 36.769531 39.660156 36.769531 Z M 39.660156 36.769531 "/>
<path style=" stroke:none;fill-rule:evenodd;fill:rgb(54.509804%,73.72549%,85.882353%);fill-opacity:1;" d="M 39.660156 37.390625 C 40.167969 37.390625 40.585938 37.84375 40.585938 38.40625 C 40.585938 38.96875 40.171875 39.421875 39.660156 39.421875 C 39.148438 39.421875 38.734375 38.96875 38.734375 38.40625 C 38.734375 37.84375 39.152344 37.390625 39.660156 37.390625 Z M 39.660156 37.390625 "/>
<path style=" stroke:none;fill-rule:nonzero;fill:rgb(19.607843%,27.843137%,40.784314%);fill-opacity:1;" d="M 35.910156 32.957031 C 36.203125 32.957031 36.464844 33.089844 36.65625 33.296875 L 36.660156 33.304688 C 36.851562 33.511719 36.972656 33.800781 36.972656 34.121094 C 36.972656 34.441406 36.851562 34.734375 36.660156 34.941406 L 36.65625 34.941406 C 36.464844 35.152344 36.203125 35.28125 35.910156 35.28125 C 35.617188 35.28125 35.355469 35.152344 35.164062 34.941406 L 35.160156 34.941406 C 34.96875 34.734375 34.847656 34.4375 34.847656 34.121094 C 34.847656 33.804688 34.96875 33.511719 35.160156 33.304688 L 35.164062 33.296875 C 35.355469 33.089844 35.617188 32.957031 35.910156 32.957031 Z M 35.910156 32.957031 "/>
<path style=" stroke:none;fill-rule:evenodd;fill:rgb(54.509804%,73.72549%,85.882353%);fill-opacity:1;" d="M 35.910156 33.585938 C 36.183594 33.585938 36.398438 33.828125 36.398438 34.121094 C 36.398438 34.417969 36.179688 34.660156 35.910156 34.660156 C 35.640625 34.660156 35.421875 34.417969 35.421875 34.121094 C 35.421875 33.828125 35.636719 33.585938 35.910156 33.585938 Z M 35.910156 33.585938 "/>
<path style=" stroke:none;fill-rule:nonzero;fill:rgb(19.607843%,27.843137%,40.784314%);fill-opacity:1;" d="M 35.816406 36.828125 C 36.148438 36.828125 36.445312 36.972656 36.660156 37.210938 L 36.699219 37.257812 C 36.894531 37.492188 37.007812 37.800781 37.007812 38.140625 C 37.007812 38.503906 36.878906 38.832031 36.660156 39.066406 L 36.617188 39.109375 C 36.402344 39.324219 36.125 39.453125 35.816406 39.453125 C 35.492188 39.453125 35.191406 39.304688 34.972656 39.066406 C 34.753906 38.828125 34.625 38.5 34.625 38.140625 C 34.625 37.785156 34.753906 37.457031 34.972656 37.214844 C 35.1875 36.976562 35.488281 36.828125 35.816406 36.828125 Z M 35.816406 36.828125 "/>
<path style=" stroke:none;fill-rule:evenodd;fill:rgb(54.509804%,73.72549%,85.882353%);fill-opacity:1;" d="M 35.816406 37.457031 C 36.164062 37.457031 36.441406 37.761719 36.441406 38.140625 C 36.441406 38.523438 36.164062 38.828125 35.816406 38.828125 C 35.472656 38.828125 35.191406 38.523438 35.191406 38.140625 C 35.191406 37.761719 35.472656 37.457031 35.816406 37.457031 Z M 35.816406 37.457031 "/>
<path style=" stroke:none;fill-rule:nonzero;fill:rgb(19.607843%,27.843137%,40.784314%);fill-opacity:1;" d="M 35.382812 17.824219 C 35.792969 17.824219 36.167969 18.007812 36.433594 18.308594 L 36.4375 18.308594 C 36.710938 18.605469 36.878906 19.015625 36.878906 19.46875 C 36.878906 19.921875 36.710938 20.328125 36.4375 20.628906 C 36.167969 20.921875 35.792969 21.109375 35.382812 21.109375 C 34.96875 21.109375 34.597656 20.925781 34.324219 20.628906 C 34.054688 20.328125 33.886719 19.921875 33.886719 19.46875 C 33.886719 19.015625 34.050781 18.605469 34.324219 18.308594 L 34.363281 18.269531 C 34.632812 17.992188 34.988281 17.824219 35.382812 17.824219 Z M 35.382812 17.824219 "/>
<path style=" stroke:none;fill-rule:evenodd;fill:rgb(54.509804%,73.72549%,85.882353%);fill-opacity:1;" d="M 35.382812 18.449219 C 35.890625 18.449219 36.304688 18.902344 36.304688 19.464844 C 36.304688 20.027344 35.890625 20.480469 35.382812 20.480469 C 34.871094 20.480469 34.457031 20.027344 34.457031 19.464844 C 34.457031 18.902344 34.871094 18.449219 35.382812 18.449219 Z M 35.382812 18.449219 "/>
<path style=" stroke:none;fill-rule:nonzero;fill:rgb(19.607843%,27.843137%,40.784314%);fill-opacity:1;" d="M 37.652344 15.269531 C 37.980469 15.269531 38.28125 15.414062 38.492188 15.652344 C 38.710938 15.890625 38.84375 16.21875 38.84375 16.578125 C 38.84375 16.941406 38.710938 17.269531 38.492188 17.507812 C 38.277344 17.75 37.976562 17.894531 37.652344 17.894531 C 37.320312 17.894531 37.019531 17.75 36.808594 17.507812 C 36.59375 17.269531 36.457031 16.941406 36.457031 16.578125 C 36.457031 16.214844 36.589844 15.886719 36.808594 15.652344 C 37.019531 15.417969 37.320312 15.269531 37.652344 15.269531 Z M 37.652344 15.269531 "/>
<path style=" stroke:none;fill-rule:evenodd;fill:rgb(54.509804%,73.72549%,85.882353%);fill-opacity:1;" d="M 37.652344 15.894531 C 37.996094 15.894531 38.277344 16.203125 38.277344 16.582031 C 38.277344 16.964844 37.996094 17.269531 37.652344 17.269531 C 37.304688 17.269531 37.023438 16.964844 37.023438 16.582031 C 37.023438 16.203125 37.304688 15.894531 37.652344 15.894531 Z M 37.652344 15.894531 "/>
<path style=" stroke:none;fill-rule:nonzero;fill:rgb(19.607843%,27.843137%,40.784314%);fill-opacity:1;" d="M 32.917969 21.792969 L 39.71875 21.792969 C 40.257812 21.792969 40.746094 22.035156 41.101562 22.425781 C 41.453125 22.8125 41.675781 23.351562 41.675781 23.945312 C 41.675781 24.539062 41.453125 25.074219 41.101562 25.464844 C 41.078125 25.488281 41.058594 25.511719 41.035156 25.53125 C 40.6875 25.882812 40.222656 26.09375 39.722656 26.09375 L 32.921875 26.09375 C 32.386719 26.09375 31.894531 25.851562 31.542969 25.464844 C 31.1875 25.074219 30.96875 24.539062 30.96875 23.945312 C 30.96875 23.351562 31.1875 22.8125 31.542969 22.425781 C 31.886719 22.035156 32.378906 21.792969 32.917969 21.792969 Z M 32.917969 21.792969 "/>
<path style=" stroke:none;fill-rule:evenodd;fill:rgb(100%,100%,100%);fill-opacity:1;" d="M 32.917969 22.773438 L 39.71875 22.773438 C 40.304688 22.773438 40.78125 23.300781 40.78125 23.945312 C 40.78125 24.589844 40.304688 25.113281 39.71875 25.113281 L 32.917969 25.113281 C 32.332031 25.113281 31.851562 24.589844 31.851562 23.945312 C 31.851562 23.300781 32.332031 22.773438 32.917969 22.773438 Z M 32.917969 22.773438 "/>
<path style=" stroke:none;fill-rule:nonzero;fill:rgb(19.607843%,27.843137%,40.784314%);fill-opacity:1;" d="M 18.476562 18.902344 C 17.070312 19.042969 15.800781 19.480469 14.746094 20.167969 C 13.742188 20.824219 12.9375 21.710938 12.410156 22.773438 C 11.882812 23.84375 11.632812 25.097656 11.730469 26.492188 C 11.824219 27.835938 12.246094 29.3125 13.054688 30.890625 C 13.367188 30.839844 13.675781 30.804688 13.988281 30.78125 C 15.484375 30.683594 16.976562 30.933594 18.371094 31.496094 C 18.910156 31.714844 19.4375 31.980469 19.941406 32.296875 L 33.683594 32.296875 C 33.957031 32.296875 34.167969 32.535156 34.167969 32.828125 L 34.167969 37.277344 C 34.167969 37.574219 33.953125 37.808594 33.683594 37.808594 L 24.558594 37.808594 C 25.082031 39.0625 25.429688 40.460938 25.566406 41.984375 L 35.1875 41.984375 C 35.308594 41.984375 35.429688 42.03125 35.519531 42.132812 L 40.226562 47.050781 C 40.335938 47.152344 40.40625 47.300781 40.40625 47.464844 C 40.40625 47.765625 40.1875 48 39.921875 48 L 0.613281 48 L 0.613281 47.996094 C 0.503906 47.996094 0.394531 47.957031 0.300781 47.875 C 0.09375 47.6875 0.0625 47.351562 0.234375 47.125 L 3.820312 42.324219 C 3.824219 40.867188 4.085938 39.515625 4.5625 38.261719 C 5.015625 37.070312 5.664062 35.964844 6.46875 34.929688 C 5.503906 33.148438 4.839844 31.394531 4.4375 29.695312 C 3.585938 26.050781 3.9375 22.660156 5.128906 19.753906 C 6.320312 16.851562 8.34375 14.441406 10.828125 12.753906 C 12.050781 11.921875 13.390625 11.269531 14.796875 10.816406 L 14.492188 10.148438 C 14.484375 10.132812 14.472656 10.117188 14.46875 10.097656 C 14.351562 9.832031 14.453125 9.511719 14.699219 9.378906 L 15.289062 9.074219 L 13.875 5.980469 L 13.027344 6.464844 C 13.011719 6.476562 12.996094 6.488281 12.980469 6.492188 C 12.738281 6.617188 12.449219 6.511719 12.332031 6.242188 L 11.136719 3.554688 C 11.023438 3.296875 11.113281 2.984375 11.347656 2.847656 L 16.152344 0.0742188 C 16.164062 0.0625 16.171875 0.0585938 16.179688 0.0507812 C 16.414062 -0.0820312 16.710938 0.0273438 16.832031 0.285156 L 18.074219 2.964844 C 18.195312 3.226562 18.101562 3.542969 17.863281 3.679688 L 17.226562 4.054688 L 18.757812 7.253906 L 19.441406 6.894531 C 19.675781 6.773438 19.960938 6.875 20.082031 7.132812 L 26.074219 19.707031 L 26.65625 19.367188 C 26.894531 19.230469 27.191406 19.328125 27.316406 19.585938 L 28.652344 22.378906 L 28.65625 22.382812 C 28.78125 22.644531 28.683594 22.96875 28.445312 23.097656 L 21.351562 27.132812 L 21.335938 27.140625 C 21.09375 27.269531 20.800781 27.15625 20.683594 26.890625 L 19.476562 24.144531 C 19.359375 23.890625 19.453125 23.570312 19.6875 23.433594 L 20.363281 23.039062 Z M 18.476562 18.902344 "/>
<path style=" stroke:none;fill-rule:nonzero;fill:rgb(97.254902%,39.215686%,39.215686%);fill-opacity:1;" d="M 25.199219 43.054688 C 25.179688 43.058594 25.160156 43.0625 25.140625 43.0625 C 25.105469 43.066406 25.066406 43.0625 25.03125 43.054688 L 4.535156 43.054688 L 1.640625 46.933594 L 38.699219 46.933594 L 34.988281 43.054688 Z M 25.199219 43.054688 "/>
<path style=" stroke:none;fill-rule:nonzero;fill:rgb(97.254902%,39.215686%,39.215686%);fill-opacity:1;" d="M 7.472656 35.277344 C 7.457031 35.304688 7.445312 35.324219 7.425781 35.347656 C 6.582031 36.382812 5.910156 37.484375 5.460938 38.675781 C 5.070312 39.707031 4.839844 40.804688 4.800781 41.984375 L 24.585938 41.984375 C 24.308594 39.019531 23.132812 36.597656 21.476562 34.855469 C 20.480469 33.8125 19.300781 33.011719 18.035156 32.5 C 16.769531 31.988281 15.414062 31.757812 14.050781 31.847656 C 11.726562 32 9.390625 33.089844 7.472656 35.277344 Z M 7.472656 35.277344 "/>
<path style=" stroke:none;fill-rule:nonzero;fill:rgb(38.039216%,76.862745%,94.901961%);fill-opacity:1;" d="M 21.394531 33.363281 C 21.652344 33.589844 21.90625 33.828125 22.144531 34.078125 C 22.882812 34.84375 23.523438 35.734375 24.054688 36.734375 L 33.195312 36.734375 L 33.195312 33.359375 L 21.394531 33.359375 Z M 21.394531 33.363281 "/>
<path style=" stroke:none;fill-rule:nonzero;fill:rgb(38.039216%,76.862745%,94.901961%);fill-opacity:1;" d="M 16.167969 8.617188 L 16.222656 8.585938 L 17.867188 7.691406 L 16.375 4.574219 L 15.28125 5.171875 L 14.734375 5.484375 Z M 16.167969 8.617188 "/>
<path style=" stroke:none;fill-rule:nonzero;fill:rgb(38.039216%,76.862745%,94.901961%);fill-opacity:1;" d="M 21.222656 22.535156 L 21.550781 22.34375 L 25.210938 20.203125 L 19.4375 8.089844 L 16.527344 9.613281 L 16.164062 9.816406 C 16.140625 9.828125 16.117188 9.839844 16.09375 9.84375 L 15.566406 10.121094 Z M 21.222656 22.535156 "/>
<path style=" stroke:none;fill-rule:nonzero;fill:rgb(38.039216%,76.862745%,94.901961%);fill-opacity:1;" d="M 27.5625 22.402344 L 26.679688 20.570312 L 21.519531 23.574219 L 21.238281 23.734375 L 21.226562 23.742188 L 21.210938 23.753906 L 20.554688 24.136719 L 21.34375 25.929688 Z M 27.5625 22.402344 "/>
<path style=" stroke:none;fill-rule:nonzero;fill:rgb(38.039216%,76.862745%,94.901961%);fill-opacity:1;" d="M 15.238281 11.785156 C 13.855469 12.210938 12.535156 12.84375 11.335938 13.660156 C 9.011719 15.234375 7.125 17.488281 6.015625 20.1875 C 4.910156 22.890625 4.582031 26.039062 5.378906 29.433594 C 5.738281 30.949219 6.320312 32.519531 7.160156 34.117188 C 8.636719 32.570312 10.316406 31.589844 12.054688 31.109375 C 11.273438 29.503906 10.859375 27.976562 10.757812 26.570312 C 10.644531 24.960938 10.9375 23.503906 11.550781 22.261719 C 12.160156 21.027344 13.09375 20 14.25 19.242188 C 15.328125 18.539062 16.609375 18.066406 18.011719 17.875 Z M 15.238281 11.785156 "/>
<path style=" stroke:none;fill-rule:nonzero;fill:rgb(38.039216%,76.862745%,94.901961%);fill-opacity:1;" d="M 16.992188 2.992188 L 16.191406 1.261719 L 12.21875 3.558594 L 12.988281 5.289062 L 13.730469 4.859375 C 13.769531 4.816406 13.8125 4.785156 13.863281 4.753906 L 14.90625 4.183594 Z M 16.992188 2.992188 "/>
</g>
</svg>
